# xmcd
#
# Track frame offsets:
#	150
#	18090
#	37910
#	56525
#	76977
#	94907
#	114690
#	133337
#
# Disc length: 2052 seconds
#
# Revision: 1
# Processed by: cddbd v1.5.2PL0 Copyright (c) Steve Scherf et al.
# Submitted via: audiograbber 1.83.01
#
DISCID=60080208
DTITLE=Various Artist - SC7754
DYEAR=1900
DGENRE=Karaoke
TTITLE0=It's Your Love - Tim McGraw and Faith Hill (Duet)
TTITLE1=One Night At A Time - George Stright
TTITLE2=There Goes - Alan Jackson
TTITLE3=How Was I To Know - John Michael Montgomery
TTITLE4=It's Your Love  ~Vol - Tim McGraw and Faith Hill (Duet)
TTITLE5=One Night At A Time ~Vol - George Stright
TTITLE6=There Goes ~Vol - Alan Jackson
TTITLE7=How Was I To Know ~Vol - John Michael Montgomery
EXTD=
EXTT0=
EXTT1=
EXTT2=
EXTT3=
EXTT4=
EXTT5=
EXTT6=
EXTT7=
PLAYORDER=
